<mxfile host="app.diagrams.net" modified="2023-10-20T10:32:44.073Z" agent="Mozilla/5.0 (Windows NT 10.0; Win64; x64) AppleWebKit/537.36 (KHTML, like Gecko) Chrome/118.0.0.0 Safari/537.36" etag="JW7arZnVuDIY_KAgJKqZ" version="22.0.5" type="device" pages="10">
  <diagram name="Page-1" id="Ozg2jcKE0TERM6rm9jfg">
    <mxGraphModel dx="1050" dy="566" grid="1" gridSize="10" guides="1" tooltips="1" connect="1" arrows="1" fold="1" page="1" pageScale="1" pageWidth="850" pageHeight="1100" math="0" shadow="0">
      <root>
        <mxCell id="0" />
        <mxCell id="1" parent="0" />
        <mxCell id="W4CH6QalZ_cDfLwo3_OT-4" value="" style="rounded=0;whiteSpace=wrap;html=1;" parent="1" vertex="1">
          <mxGeometry x="265" y="110" width="320" height="520" as="geometry" />
        </mxCell>
        <mxCell id="W4CH6QalZ_cDfLwo3_OT-1" value="Libarian" style="shape=umlActor;verticalLabelPosition=bottom;verticalAlign=top;html=1;outlineConnect=0;" parent="1" vertex="1">
          <mxGeometry x="160" y="260" width="30" height="60" as="geometry" />
        </mxCell>
        <mxCell id="W4CH6QalZ_cDfLwo3_OT-2" value="User" style="shape=umlActor;verticalLabelPosition=bottom;verticalAlign=top;html=1;outlineConnect=0;" parent="1" vertex="1">
          <mxGeometry x="652" y="270" width="30" height="60" as="geometry" />
        </mxCell>
        <mxCell id="W4CH6QalZ_cDfLwo3_OT-8" value="Đặt sách" style="ellipse;whiteSpace=wrap;html=1;" parent="1" vertex="1">
          <mxGeometry x="383" y="120" width="85" height="50" as="geometry" />
        </mxCell>
        <mxCell id="W4CH6QalZ_cDfLwo3_OT-10" value="Tìm kiếm sách" style="ellipse;whiteSpace=wrap;html=1;" parent="1" vertex="1">
          <mxGeometry x="383" y="180" width="85" height="50" as="geometry" />
        </mxCell>
        <mxCell id="W4CH6QalZ_cDfLwo3_OT-11" value="Xem chi tiết sách" style="ellipse;whiteSpace=wrap;html=1;" parent="1" vertex="1">
          <mxGeometry x="383" y="240" width="85" height="50" as="geometry" />
        </mxCell>
        <mxCell id="W4CH6QalZ_cDfLwo3_OT-12" value="Quản lý sách" style="ellipse;whiteSpace=wrap;html=1;" parent="1" vertex="1">
          <mxGeometry x="383" y="300" width="85" height="50" as="geometry" />
        </mxCell>
        <mxCell id="W4CH6QalZ_cDfLwo3_OT-13" value="Quản lý tài khoản" style="ellipse;whiteSpace=wrap;html=1;" parent="1" vertex="1">
          <mxGeometry x="383" y="360" width="85" height="50" as="geometry" />
        </mxCell>
        <mxCell id="W4CH6QalZ_cDfLwo3_OT-14" value="Quản lý lịch sử mượn" style="ellipse;whiteSpace=wrap;html=1;" parent="1" vertex="1">
          <mxGeometry x="383" y="420" width="85" height="50" as="geometry" />
        </mxCell>
        <mxCell id="W4CH6QalZ_cDfLwo3_OT-20" value="" style="endArrow=classic;html=1;rounded=0;entryX=1;entryY=0.5;entryDx=0;entryDy=0;" parent="1" source="W4CH6QalZ_cDfLwo3_OT-2" target="W4CH6QalZ_cDfLwo3_OT-8" edge="1">
          <mxGeometry width="50" height="50" relative="1" as="geometry">
            <mxPoint x="400" y="420" as="sourcePoint" />
            <mxPoint x="450" y="370" as="targetPoint" />
          </mxGeometry>
        </mxCell>
        <mxCell id="W4CH6QalZ_cDfLwo3_OT-21" value="" style="endArrow=classic;html=1;rounded=0;entryX=1;entryY=0.5;entryDx=0;entryDy=0;exitX=0.5;exitY=0.5;exitDx=0;exitDy=0;exitPerimeter=0;" parent="1" source="W4CH6QalZ_cDfLwo3_OT-2" target="W4CH6QalZ_cDfLwo3_OT-10" edge="1">
          <mxGeometry width="50" height="50" relative="1" as="geometry">
            <mxPoint x="650" y="288" as="sourcePoint" />
            <mxPoint x="478" y="155" as="targetPoint" />
          </mxGeometry>
        </mxCell>
        <mxCell id="W4CH6QalZ_cDfLwo3_OT-22" value="" style="endArrow=classic;html=1;rounded=0;entryX=1;entryY=0.5;entryDx=0;entryDy=0;exitX=0.5;exitY=0.5;exitDx=0;exitDy=0;exitPerimeter=0;" parent="1" source="W4CH6QalZ_cDfLwo3_OT-2" edge="1">
          <mxGeometry width="50" height="50" relative="1" as="geometry">
            <mxPoint x="677" y="310" as="sourcePoint" />
            <mxPoint x="480" y="275" as="targetPoint" />
          </mxGeometry>
        </mxCell>
        <mxCell id="W4CH6QalZ_cDfLwo3_OT-23" value="" style="endArrow=classic;html=1;rounded=0;entryX=0;entryY=0.5;entryDx=0;entryDy=0;exitX=0.5;exitY=0.5;exitDx=0;exitDy=0;exitPerimeter=0;" parent="1" source="W4CH6QalZ_cDfLwo3_OT-1" target="W4CH6QalZ_cDfLwo3_OT-12" edge="1">
          <mxGeometry width="50" height="50" relative="1" as="geometry">
            <mxPoint x="400" y="420" as="sourcePoint" />
            <mxPoint x="450" y="370" as="targetPoint" />
          </mxGeometry>
        </mxCell>
        <mxCell id="W4CH6QalZ_cDfLwo3_OT-24" value="" style="endArrow=classic;html=1;rounded=0;entryX=0;entryY=0.5;entryDx=0;entryDy=0;" parent="1" source="W4CH6QalZ_cDfLwo3_OT-1" target="W4CH6QalZ_cDfLwo3_OT-13" edge="1">
          <mxGeometry width="50" height="50" relative="1" as="geometry">
            <mxPoint x="185" y="300" as="sourcePoint" />
            <mxPoint x="380" y="330" as="targetPoint" />
          </mxGeometry>
        </mxCell>
        <mxCell id="W4CH6QalZ_cDfLwo3_OT-25" value="" style="endArrow=classic;html=1;rounded=0;entryX=0;entryY=0.5;entryDx=0;entryDy=0;" parent="1" source="W4CH6QalZ_cDfLwo3_OT-1" target="W4CH6QalZ_cDfLwo3_OT-14" edge="1">
          <mxGeometry width="50" height="50" relative="1" as="geometry">
            <mxPoint x="200" y="307" as="sourcePoint" />
            <mxPoint x="393" y="395" as="targetPoint" />
          </mxGeometry>
        </mxCell>
        <mxCell id="W4CH6QalZ_cDfLwo3_OT-26" value="" style="endArrow=classic;html=1;rounded=0;entryX=1;entryY=0.5;entryDx=0;entryDy=0;exitX=0.5;exitY=0.5;exitDx=0;exitDy=0;exitPerimeter=0;" parent="1" source="W4CH6QalZ_cDfLwo3_OT-2" target="W4CH6QalZ_cDfLwo3_OT-14" edge="1">
          <mxGeometry width="50" height="50" relative="1" as="geometry">
            <mxPoint x="400" y="420" as="sourcePoint" />
            <mxPoint x="450" y="370" as="targetPoint" />
          </mxGeometry>
        </mxCell>
        <mxCell id="W4CH6QalZ_cDfLwo3_OT-27" value="" style="endArrow=classic;html=1;rounded=0;entryX=1;entryY=0.5;entryDx=0;entryDy=0;exitX=0.5;exitY=0.5;exitDx=0;exitDy=0;exitPerimeter=0;" parent="1" source="W4CH6QalZ_cDfLwo3_OT-2" target="W4CH6QalZ_cDfLwo3_OT-13" edge="1">
          <mxGeometry width="50" height="50" relative="1" as="geometry">
            <mxPoint x="665" y="300" as="sourcePoint" />
            <mxPoint x="478" y="455" as="targetPoint" />
          </mxGeometry>
        </mxCell>
        <mxCell id="-xbFdClLpso-7qlOg8Ij-1" value="Quản lý bình luận" style="ellipse;whiteSpace=wrap;html=1;" parent="1" vertex="1">
          <mxGeometry x="383" y="490" width="85" height="50" as="geometry" />
        </mxCell>
        <mxCell id="uuozdMAwJygHBVcwAOiA-1" value="Đăng nhập, đăng ký" style="ellipse;whiteSpace=wrap;html=1;" parent="1" vertex="1">
          <mxGeometry x="383" y="560" width="85" height="50" as="geometry" />
        </mxCell>
        <mxCell id="uuozdMAwJygHBVcwAOiA-2" value="" style="endArrow=classic;html=1;rounded=0;entryX=1;entryY=0.5;entryDx=0;entryDy=0;" parent="1" source="W4CH6QalZ_cDfLwo3_OT-2" target="-xbFdClLpso-7qlOg8Ij-1" edge="1">
          <mxGeometry width="50" height="50" relative="1" as="geometry">
            <mxPoint x="400" y="500" as="sourcePoint" />
            <mxPoint x="450" y="450" as="targetPoint" />
          </mxGeometry>
        </mxCell>
        <mxCell id="uuozdMAwJygHBVcwAOiA-3" value="" style="endArrow=classic;html=1;rounded=0;entryX=0.073;entryY=0.696;entryDx=0;entryDy=0;entryPerimeter=0;" parent="1" source="W4CH6QalZ_cDfLwo3_OT-1" target="uuozdMAwJygHBVcwAOiA-1" edge="1">
          <mxGeometry width="50" height="50" relative="1" as="geometry">
            <mxPoint x="200" y="316" as="sourcePoint" />
            <mxPoint x="393" y="515" as="targetPoint" />
          </mxGeometry>
        </mxCell>
        <mxCell id="uuozdMAwJygHBVcwAOiA-4" value="" style="endArrow=classic;html=1;rounded=0;entryX=1;entryY=0.5;entryDx=0;entryDy=0;exitX=0.5;exitY=0.5;exitDx=0;exitDy=0;exitPerimeter=0;" parent="1" source="W4CH6QalZ_cDfLwo3_OT-2" target="uuozdMAwJygHBVcwAOiA-1" edge="1">
          <mxGeometry width="50" height="50" relative="1" as="geometry">
            <mxPoint x="210" y="326" as="sourcePoint" />
            <mxPoint x="403" y="525" as="targetPoint" />
          </mxGeometry>
        </mxCell>
        <mxCell id="STGe2ac9YG3FdXoj4-xG-2" value="" style="endArrow=classic;html=1;rounded=0;entryX=0;entryY=0.5;entryDx=0;entryDy=0;" edge="1" parent="1" source="W4CH6QalZ_cDfLwo3_OT-1" target="-xbFdClLpso-7qlOg8Ij-1">
          <mxGeometry width="50" height="50" relative="1" as="geometry">
            <mxPoint x="400" y="420" as="sourcePoint" />
            <mxPoint x="450" y="370" as="targetPoint" />
          </mxGeometry>
        </mxCell>
      </root>
    </mxGraphModel>
  </diagram>
  <diagram id="P_-6cOpUxGDEXPIQ_k0v" name="Page-2">
    <mxGraphModel dx="1050" dy="566" grid="1" gridSize="10" guides="1" tooltips="1" connect="1" arrows="1" fold="1" page="1" pageScale="1" pageWidth="850" pageHeight="1100" math="0" shadow="0">
      <root>
        <mxCell id="0" />
        <mxCell id="1" parent="0" />
        <mxCell id="NflWbCEuRao-FWWK87dX-1" value="User" style="shape=umlActor;verticalLabelPosition=bottom;verticalAlign=top;html=1;outlineConnect=0;" vertex="1" parent="1">
          <mxGeometry x="160" y="210" width="30" height="60" as="geometry" />
        </mxCell>
        <mxCell id="AJipfg-3-GwZmUN7vZx4-1" value="Đặt sách" style="ellipse;whiteSpace=wrap;html=1;" vertex="1" parent="1">
          <mxGeometry x="290" y="210" width="90" height="60" as="geometry" />
        </mxCell>
        <mxCell id="AJipfg-3-GwZmUN7vZx4-2" value="Thêm sách vào giỏ" style="ellipse;whiteSpace=wrap;html=1;" vertex="1" parent="1">
          <mxGeometry x="440" y="120" width="90" height="60" as="geometry" />
        </mxCell>
        <mxCell id="AJipfg-3-GwZmUN7vZx4-3" value="Xóa sách khỏi giỏ" style="ellipse;whiteSpace=wrap;html=1;" vertex="1" parent="1">
          <mxGeometry x="440" y="200" width="90" height="60" as="geometry" />
        </mxCell>
        <mxCell id="AJipfg-3-GwZmUN7vZx4-4" value="Xem thông tin về giỏ hàng" style="ellipse;whiteSpace=wrap;html=1;" vertex="1" parent="1">
          <mxGeometry x="440" y="280" width="90" height="60" as="geometry" />
        </mxCell>
        <mxCell id="AJipfg-3-GwZmUN7vZx4-7" value="" style="endArrow=classic;html=1;rounded=0;entryX=0;entryY=0.5;entryDx=0;entryDy=0;exitX=0.5;exitY=0.5;exitDx=0;exitDy=0;exitPerimeter=0;" edge="1" parent="1" source="NflWbCEuRao-FWWK87dX-1" target="AJipfg-3-GwZmUN7vZx4-1">
          <mxGeometry width="50" height="50" relative="1" as="geometry">
            <mxPoint x="400" y="320" as="sourcePoint" />
            <mxPoint x="450" y="270" as="targetPoint" />
          </mxGeometry>
        </mxCell>
        <mxCell id="AJipfg-3-GwZmUN7vZx4-8" value="" style="endArrow=none;dashed=1;html=1;dashPattern=1 3;strokeWidth=2;rounded=0;entryX=1;entryY=0;entryDx=0;entryDy=0;exitX=0;exitY=0.5;exitDx=0;exitDy=0;" edge="1" parent="1" source="AJipfg-3-GwZmUN7vZx4-2" target="AJipfg-3-GwZmUN7vZx4-1">
          <mxGeometry width="50" height="50" relative="1" as="geometry">
            <mxPoint x="400" y="320" as="sourcePoint" />
            <mxPoint x="450" y="270" as="targetPoint" />
          </mxGeometry>
        </mxCell>
        <mxCell id="AJipfg-3-GwZmUN7vZx4-11" value="Include" style="edgeLabel;html=1;align=center;verticalAlign=middle;resizable=0;points=[];" vertex="1" connectable="0" parent="AJipfg-3-GwZmUN7vZx4-8">
          <mxGeometry x="0.1134" y="-1" relative="1" as="geometry">
            <mxPoint as="offset" />
          </mxGeometry>
        </mxCell>
        <mxCell id="AJipfg-3-GwZmUN7vZx4-9" value="" style="endArrow=none;dashed=1;html=1;dashPattern=1 3;strokeWidth=2;rounded=0;entryX=1;entryY=0.5;entryDx=0;entryDy=0;exitX=-0.013;exitY=0.62;exitDx=0;exitDy=0;exitPerimeter=0;" edge="1" parent="1" source="AJipfg-3-GwZmUN7vZx4-3" target="AJipfg-3-GwZmUN7vZx4-1">
          <mxGeometry width="50" height="50" relative="1" as="geometry">
            <mxPoint x="450" y="160" as="sourcePoint" />
            <mxPoint x="377" y="229" as="targetPoint" />
          </mxGeometry>
        </mxCell>
        <mxCell id="AJipfg-3-GwZmUN7vZx4-12" value="Include" style="edgeLabel;html=1;align=center;verticalAlign=middle;resizable=0;points=[];" vertex="1" connectable="0" parent="AJipfg-3-GwZmUN7vZx4-9">
          <mxGeometry x="-0.2163" y="1" relative="1" as="geometry">
            <mxPoint as="offset" />
          </mxGeometry>
        </mxCell>
        <mxCell id="AJipfg-3-GwZmUN7vZx4-10" value="" style="endArrow=none;dashed=1;html=1;dashPattern=1 3;strokeWidth=2;rounded=0;entryX=1;entryY=1;entryDx=0;entryDy=0;exitX=0;exitY=0.5;exitDx=0;exitDy=0;" edge="1" parent="1" source="AJipfg-3-GwZmUN7vZx4-4" target="AJipfg-3-GwZmUN7vZx4-1">
          <mxGeometry width="50" height="50" relative="1" as="geometry">
            <mxPoint x="449" y="247" as="sourcePoint" />
            <mxPoint x="390" y="250" as="targetPoint" />
          </mxGeometry>
        </mxCell>
        <mxCell id="AJipfg-3-GwZmUN7vZx4-13" value="Extends" style="edgeLabel;html=1;align=center;verticalAlign=middle;resizable=0;points=[];" vertex="1" connectable="0" parent="AJipfg-3-GwZmUN7vZx4-10">
          <mxGeometry x="-0.1549" y="4" relative="1" as="geometry">
            <mxPoint as="offset" />
          </mxGeometry>
        </mxCell>
      </root>
    </mxGraphModel>
  </diagram>
  <diagram id="tt4PGvNG0BmopCk0UNzX" name="Page-3">
    <mxGraphModel dx="1050" dy="566" grid="1" gridSize="10" guides="1" tooltips="1" connect="1" arrows="1" fold="1" page="1" pageScale="1" pageWidth="850" pageHeight="1100" math="0" shadow="0">
      <root>
        <mxCell id="0" />
        <mxCell id="1" parent="0" />
        <mxCell id="gykBE_4dmsZWCaWg7WTL-1" value="User" style="shape=umlActor;verticalLabelPosition=bottom;verticalAlign=top;html=1;outlineConnect=0;" vertex="1" parent="1">
          <mxGeometry x="80" y="180" width="30" height="60" as="geometry" />
        </mxCell>
        <mxCell id="gykBE_4dmsZWCaWg7WTL-3" value="Libarian" style="shape=umlActor;verticalLabelPosition=bottom;verticalAlign=top;html=1;outlineConnect=0;" vertex="1" parent="1">
          <mxGeometry x="80" y="310" width="30" height="60" as="geometry" />
        </mxCell>
        <mxCell id="gykBE_4dmsZWCaWg7WTL-4" value="Tìm kiếm sách" style="ellipse;whiteSpace=wrap;html=1;" vertex="1" parent="1">
          <mxGeometry x="230" y="230" width="100" height="60" as="geometry" />
        </mxCell>
        <mxCell id="gykBE_4dmsZWCaWg7WTL-5" value="Tìm kiếm theo tên sách" style="ellipse;whiteSpace=wrap;html=1;" vertex="1" parent="1">
          <mxGeometry x="400" y="120" width="100" height="60" as="geometry" />
        </mxCell>
        <mxCell id="gykBE_4dmsZWCaWg7WTL-6" value="Tìm kiếm theo thể loại sách" style="ellipse;whiteSpace=wrap;html=1;" vertex="1" parent="1">
          <mxGeometry x="400" y="200" width="100" height="60" as="geometry" />
        </mxCell>
        <mxCell id="gykBE_4dmsZWCaWg7WTL-7" value="Tìm kiếm theo nhà xuất bản" style="ellipse;whiteSpace=wrap;html=1;" vertex="1" parent="1">
          <mxGeometry x="400" y="280" width="100" height="60" as="geometry" />
        </mxCell>
        <mxCell id="gykBE_4dmsZWCaWg7WTL-8" value="Tìm kiếm theo tác giả" style="ellipse;whiteSpace=wrap;html=1;" vertex="1" parent="1">
          <mxGeometry x="400" y="360" width="100" height="60" as="geometry" />
        </mxCell>
        <mxCell id="rIJK455DzlkWacMD0cvX-1" value="" style="endArrow=classic;html=1;rounded=0;exitX=0.5;exitY=0.5;exitDx=0;exitDy=0;exitPerimeter=0;entryX=0;entryY=0.5;entryDx=0;entryDy=0;" edge="1" parent="1" source="gykBE_4dmsZWCaWg7WTL-1" target="gykBE_4dmsZWCaWg7WTL-4">
          <mxGeometry width="50" height="50" relative="1" as="geometry">
            <mxPoint x="400" y="320" as="sourcePoint" />
            <mxPoint x="450" y="270" as="targetPoint" />
          </mxGeometry>
        </mxCell>
        <mxCell id="rIJK455DzlkWacMD0cvX-2" value="" style="endArrow=classic;html=1;rounded=0;exitX=0.5;exitY=0.5;exitDx=0;exitDy=0;exitPerimeter=0;" edge="1" parent="1" source="gykBE_4dmsZWCaWg7WTL-3">
          <mxGeometry width="50" height="50" relative="1" as="geometry">
            <mxPoint x="105" y="220" as="sourcePoint" />
            <mxPoint x="230" y="260" as="targetPoint" />
          </mxGeometry>
        </mxCell>
        <mxCell id="rIJK455DzlkWacMD0cvX-3" value="" style="endArrow=none;dashed=1;html=1;dashPattern=1 3;strokeWidth=2;rounded=0;entryX=0;entryY=0.5;entryDx=0;entryDy=0;exitX=1;exitY=0.5;exitDx=0;exitDy=0;" edge="1" parent="1" source="gykBE_4dmsZWCaWg7WTL-4" target="gykBE_4dmsZWCaWg7WTL-5">
          <mxGeometry width="50" height="50" relative="1" as="geometry">
            <mxPoint x="400" y="320" as="sourcePoint" />
            <mxPoint x="450" y="270" as="targetPoint" />
          </mxGeometry>
        </mxCell>
        <mxCell id="rIJK455DzlkWacMD0cvX-9" value="Include" style="edgeLabel;html=1;align=center;verticalAlign=middle;resizable=0;points=[];" vertex="1" connectable="0" parent="rIJK455DzlkWacMD0cvX-3">
          <mxGeometry x="0.0998" y="3" relative="1" as="geometry">
            <mxPoint as="offset" />
          </mxGeometry>
        </mxCell>
        <mxCell id="rIJK455DzlkWacMD0cvX-4" value="" style="endArrow=none;dashed=1;html=1;dashPattern=1 3;strokeWidth=2;rounded=0;entryX=0;entryY=0.5;entryDx=0;entryDy=0;exitX=1;exitY=0.5;exitDx=0;exitDy=0;" edge="1" parent="1" source="gykBE_4dmsZWCaWg7WTL-4" target="gykBE_4dmsZWCaWg7WTL-6">
          <mxGeometry width="50" height="50" relative="1" as="geometry">
            <mxPoint x="340" y="270" as="sourcePoint" />
            <mxPoint x="410" y="160" as="targetPoint" />
          </mxGeometry>
        </mxCell>
        <mxCell id="rIJK455DzlkWacMD0cvX-10" value="Include" style="edgeLabel;html=1;align=center;verticalAlign=middle;resizable=0;points=[];" vertex="1" connectable="0" parent="rIJK455DzlkWacMD0cvX-4">
          <mxGeometry x="0.0938" y="-1" relative="1" as="geometry">
            <mxPoint as="offset" />
          </mxGeometry>
        </mxCell>
        <mxCell id="rIJK455DzlkWacMD0cvX-5" value="" style="endArrow=none;dashed=1;html=1;dashPattern=1 3;strokeWidth=2;rounded=0;entryX=0;entryY=0.5;entryDx=0;entryDy=0;exitX=1;exitY=0.5;exitDx=0;exitDy=0;" edge="1" parent="1" source="gykBE_4dmsZWCaWg7WTL-4" target="gykBE_4dmsZWCaWg7WTL-7">
          <mxGeometry width="50" height="50" relative="1" as="geometry">
            <mxPoint x="350" y="280" as="sourcePoint" />
            <mxPoint x="420" y="170" as="targetPoint" />
          </mxGeometry>
        </mxCell>
        <mxCell id="rIJK455DzlkWacMD0cvX-11" value="Include" style="edgeLabel;html=1;align=center;verticalAlign=middle;resizable=0;points=[];" vertex="1" connectable="0" parent="rIJK455DzlkWacMD0cvX-5">
          <mxGeometry x="0.2043" y="3" relative="1" as="geometry">
            <mxPoint as="offset" />
          </mxGeometry>
        </mxCell>
        <mxCell id="rIJK455DzlkWacMD0cvX-6" value="" style="endArrow=none;dashed=1;html=1;dashPattern=1 3;strokeWidth=2;rounded=0;entryX=0;entryY=0.5;entryDx=0;entryDy=0;exitX=1;exitY=0.5;exitDx=0;exitDy=0;" edge="1" parent="1" source="gykBE_4dmsZWCaWg7WTL-4" target="gykBE_4dmsZWCaWg7WTL-8">
          <mxGeometry width="50" height="50" relative="1" as="geometry">
            <mxPoint x="360" y="290" as="sourcePoint" />
            <mxPoint x="430" y="180" as="targetPoint" />
          </mxGeometry>
        </mxCell>
        <mxCell id="rIJK455DzlkWacMD0cvX-12" value="Include" style="edgeLabel;html=1;align=center;verticalAlign=middle;resizable=0;points=[];" vertex="1" connectable="0" parent="rIJK455DzlkWacMD0cvX-6">
          <mxGeometry x="-0.0872" y="3" relative="1" as="geometry">
            <mxPoint as="offset" />
          </mxGeometry>
        </mxCell>
      </root>
    </mxGraphModel>
  </diagram>
  <diagram id="EgMaASlLxRPO_7OBZ1hG" name="Page-4">
    <mxGraphModel dx="1050" dy="566" grid="1" gridSize="10" guides="1" tooltips="1" connect="1" arrows="1" fold="1" page="1" pageScale="1" pageWidth="850" pageHeight="1100" math="0" shadow="0">
      <root>
        <mxCell id="0" />
        <mxCell id="1" parent="0" />
        <mxCell id="mI7znUdKcWVjdT1SzGBo-1" value="Libarian" style="shape=umlActor;verticalLabelPosition=bottom;verticalAlign=top;html=1;outlineConnect=0;" parent="1" vertex="1">
          <mxGeometry x="80" y="100" width="30" height="60" as="geometry" />
        </mxCell>
        <mxCell id="mI7znUdKcWVjdT1SzGBo-2" value="User" style="shape=umlActor;verticalLabelPosition=bottom;verticalAlign=top;html=1;outlineConnect=0;" parent="1" vertex="1">
          <mxGeometry x="80" y="220" width="30" height="60" as="geometry" />
        </mxCell>
        <mxCell id="mI7znUdKcWVjdT1SzGBo-3" value="Xem chi tiết sách" style="ellipse;whiteSpace=wrap;html=1;" parent="1" vertex="1">
          <mxGeometry x="240" y="150" width="90" height="60" as="geometry" />
        </mxCell>
        <mxCell id="gLIVtWuYyuhbV8zHMuZ7-1" value="Xem chi tiết tác giả" style="ellipse;whiteSpace=wrap;html=1;" vertex="1" parent="1">
          <mxGeometry x="390" y="90" width="90" height="60" as="geometry" />
        </mxCell>
        <mxCell id="gLIVtWuYyuhbV8zHMuZ7-2" value="Xem chi tiết nhà xuất bản" style="ellipse;whiteSpace=wrap;html=1;" vertex="1" parent="1">
          <mxGeometry x="390" y="220" width="90" height="60" as="geometry" />
        </mxCell>
        <mxCell id="gLIVtWuYyuhbV8zHMuZ7-3" value="" style="endArrow=classic;html=1;rounded=0;exitX=0.5;exitY=0.5;exitDx=0;exitDy=0;exitPerimeter=0;entryX=0;entryY=0.5;entryDx=0;entryDy=0;" edge="1" parent="1" source="mI7znUdKcWVjdT1SzGBo-1" target="mI7znUdKcWVjdT1SzGBo-3">
          <mxGeometry width="50" height="50" relative="1" as="geometry">
            <mxPoint x="400" y="220" as="sourcePoint" />
            <mxPoint x="450" y="170" as="targetPoint" />
          </mxGeometry>
        </mxCell>
        <mxCell id="gLIVtWuYyuhbV8zHMuZ7-4" value="" style="endArrow=classic;html=1;rounded=0;entryX=0;entryY=0.5;entryDx=0;entryDy=0;" edge="1" parent="1" source="mI7znUdKcWVjdT1SzGBo-2" target="mI7znUdKcWVjdT1SzGBo-3">
          <mxGeometry width="50" height="50" relative="1" as="geometry">
            <mxPoint x="105" y="140" as="sourcePoint" />
            <mxPoint x="250" y="190" as="targetPoint" />
          </mxGeometry>
        </mxCell>
        <mxCell id="gLIVtWuYyuhbV8zHMuZ7-5" value="" style="endArrow=none;dashed=1;html=1;rounded=0;exitX=1;exitY=0.5;exitDx=0;exitDy=0;entryX=0;entryY=0.5;entryDx=0;entryDy=0;" edge="1" parent="1" source="mI7znUdKcWVjdT1SzGBo-3" target="gLIVtWuYyuhbV8zHMuZ7-1">
          <mxGeometry width="50" height="50" relative="1" as="geometry">
            <mxPoint x="400" y="220" as="sourcePoint" />
            <mxPoint x="450" y="170" as="targetPoint" />
          </mxGeometry>
        </mxCell>
        <mxCell id="gLIVtWuYyuhbV8zHMuZ7-7" value="Extend" style="edgeLabel;html=1;align=center;verticalAlign=middle;resizable=0;points=[];" vertex="1" connectable="0" parent="gLIVtWuYyuhbV8zHMuZ7-5">
          <mxGeometry x="0.1333" y="-1" relative="1" as="geometry">
            <mxPoint as="offset" />
          </mxGeometry>
        </mxCell>
        <mxCell id="gLIVtWuYyuhbV8zHMuZ7-6" value="" style="endArrow=none;dashed=1;html=1;rounded=0;exitX=1;exitY=0.5;exitDx=0;exitDy=0;entryX=0;entryY=0.5;entryDx=0;entryDy=0;" edge="1" parent="1" source="mI7znUdKcWVjdT1SzGBo-3" target="gLIVtWuYyuhbV8zHMuZ7-2">
          <mxGeometry width="50" height="50" relative="1" as="geometry">
            <mxPoint x="340" y="190" as="sourcePoint" />
            <mxPoint x="400" y="130" as="targetPoint" />
          </mxGeometry>
        </mxCell>
        <mxCell id="gLIVtWuYyuhbV8zHMuZ7-8" value="Extend" style="edgeLabel;html=1;align=center;verticalAlign=middle;resizable=0;points=[];" vertex="1" connectable="0" parent="gLIVtWuYyuhbV8zHMuZ7-6">
          <mxGeometry x="0.008" y="1" relative="1" as="geometry">
            <mxPoint y="1" as="offset" />
          </mxGeometry>
        </mxCell>
      </root>
    </mxGraphModel>
  </diagram>
  <diagram id="_ehAGJn5jhwJtD0jp-_Q" name="Page-5">
    <mxGraphModel dx="1050" dy="566" grid="1" gridSize="10" guides="1" tooltips="1" connect="1" arrows="1" fold="1" page="1" pageScale="1" pageWidth="850" pageHeight="1100" math="0" shadow="0">
      <root>
        <mxCell id="0" />
        <mxCell id="1" parent="0" />
        <mxCell id="BPsgiUpyqL0QaFHmPc6V-1" value="Libarian" style="shape=umlActor;verticalLabelPosition=bottom;verticalAlign=top;html=1;outlineConnect=0;" vertex="1" parent="1">
          <mxGeometry x="150" y="220" width="30" height="60" as="geometry" />
        </mxCell>
        <mxCell id="BPsgiUpyqL0QaFHmPc6V-2" value="Quản lý sách" style="ellipse;whiteSpace=wrap;html=1;" vertex="1" parent="1">
          <mxGeometry x="280" y="220" width="90" height="60" as="geometry" />
        </mxCell>
        <mxCell id="gc0eFn-Zih1iViQZy-ai-2" value="Quản lý tác giả" style="ellipse;whiteSpace=wrap;html=1;" vertex="1" parent="1">
          <mxGeometry x="490" y="130" width="90" height="60" as="geometry" />
        </mxCell>
        <mxCell id="gc0eFn-Zih1iViQZy-ai-3" value="Quản lý nhà xuất bản" style="ellipse;whiteSpace=wrap;html=1;" vertex="1" parent="1">
          <mxGeometry x="500" y="240" width="90" height="60" as="geometry" />
        </mxCell>
        <mxCell id="gc0eFn-Zih1iViQZy-ai-4" value="Quản lý đầu sách" style="ellipse;whiteSpace=wrap;html=1;" vertex="1" parent="1">
          <mxGeometry x="500" y="340" width="90" height="60" as="geometry" />
        </mxCell>
        <mxCell id="gc0eFn-Zih1iViQZy-ai-5" value="Quản lý cuốn sách" style="ellipse;whiteSpace=wrap;html=1;" vertex="1" parent="1">
          <mxGeometry x="500" y="460" width="90" height="60" as="geometry" />
        </mxCell>
        <mxCell id="gc0eFn-Zih1iViQZy-ai-7" value="Xóa" style="ellipse;whiteSpace=wrap;html=1;" vertex="1" parent="1">
          <mxGeometry x="750" y="290" width="90" height="60" as="geometry" />
        </mxCell>
        <mxCell id="gc0eFn-Zih1iViQZy-ai-8" value="Sửa" style="ellipse;whiteSpace=wrap;html=1;" vertex="1" parent="1">
          <mxGeometry x="730" y="440" width="90" height="60" as="geometry" />
        </mxCell>
        <mxCell id="gc0eFn-Zih1iViQZy-ai-9" value="Thêm" style="ellipse;whiteSpace=wrap;html=1;" vertex="1" parent="1">
          <mxGeometry x="750" y="140" width="90" height="60" as="geometry" />
        </mxCell>
        <mxCell id="gc0eFn-Zih1iViQZy-ai-10" value="" style="endArrow=classic;html=1;rounded=0;entryX=0;entryY=0.5;entryDx=0;entryDy=0;" edge="1" parent="1" source="BPsgiUpyqL0QaFHmPc6V-1" target="BPsgiUpyqL0QaFHmPc6V-2">
          <mxGeometry width="50" height="50" relative="1" as="geometry">
            <mxPoint x="400" y="320" as="sourcePoint" />
            <mxPoint x="450" y="270" as="targetPoint" />
          </mxGeometry>
        </mxCell>
        <mxCell id="gc0eFn-Zih1iViQZy-ai-21" value="" style="endArrow=none;dashed=1;html=1;dashPattern=1 3;strokeWidth=2;rounded=0;entryX=0;entryY=0.5;entryDx=0;entryDy=0;exitX=1;exitY=0;exitDx=0;exitDy=0;" edge="1" parent="1" source="BPsgiUpyqL0QaFHmPc6V-2" target="gc0eFn-Zih1iViQZy-ai-2">
          <mxGeometry width="50" height="50" relative="1" as="geometry">
            <mxPoint x="400" y="320" as="sourcePoint" />
            <mxPoint x="450" y="270" as="targetPoint" />
          </mxGeometry>
        </mxCell>
        <mxCell id="gc0eFn-Zih1iViQZy-ai-22" value="" style="endArrow=none;dashed=1;html=1;dashPattern=1 3;strokeWidth=2;rounded=0;entryX=0;entryY=0.5;entryDx=0;entryDy=0;exitX=1.053;exitY=0.66;exitDx=0;exitDy=0;exitPerimeter=0;" edge="1" parent="1" source="BPsgiUpyqL0QaFHmPc6V-2" target="gc0eFn-Zih1iViQZy-ai-3">
          <mxGeometry width="50" height="50" relative="1" as="geometry">
            <mxPoint x="367" y="239" as="sourcePoint" />
            <mxPoint x="460" y="140" as="targetPoint" />
          </mxGeometry>
        </mxCell>
        <mxCell id="gc0eFn-Zih1iViQZy-ai-23" value="" style="endArrow=none;dashed=1;html=1;dashPattern=1 3;strokeWidth=2;rounded=0;entryX=0;entryY=0.5;entryDx=0;entryDy=0;exitX=1;exitY=0.667;exitDx=0;exitDy=0;exitPerimeter=0;" edge="1" parent="1" source="BPsgiUpyqL0QaFHmPc6V-2" target="gc0eFn-Zih1iViQZy-ai-4">
          <mxGeometry width="50" height="50" relative="1" as="geometry">
            <mxPoint x="385" y="270" as="sourcePoint" />
            <mxPoint x="460" y="310" as="targetPoint" />
          </mxGeometry>
        </mxCell>
        <mxCell id="gc0eFn-Zih1iViQZy-ai-24" value="" style="endArrow=none;dashed=1;html=1;dashPattern=1 3;strokeWidth=2;rounded=0;entryX=0;entryY=0;entryDx=0;entryDy=0;exitX=1.018;exitY=0.687;exitDx=0;exitDy=0;exitPerimeter=0;" edge="1" parent="1" source="BPsgiUpyqL0QaFHmPc6V-2" target="gc0eFn-Zih1iViQZy-ai-5">
          <mxGeometry width="50" height="50" relative="1" as="geometry">
            <mxPoint x="367" y="281" as="sourcePoint" />
            <mxPoint x="460" y="500" as="targetPoint" />
          </mxGeometry>
        </mxCell>
        <mxCell id="gc0eFn-Zih1iViQZy-ai-25" value="" style="endArrow=none;dashed=1;html=1;dashPattern=1 3;strokeWidth=2;rounded=0;entryX=0;entryY=0.5;entryDx=0;entryDy=0;exitX=1;exitY=0;exitDx=0;exitDy=0;" edge="1" parent="1" source="gc0eFn-Zih1iViQZy-ai-2" target="gc0eFn-Zih1iViQZy-ai-9">
          <mxGeometry width="50" height="50" relative="1" as="geometry">
            <mxPoint x="367" y="239" as="sourcePoint" />
            <mxPoint x="460" y="140" as="targetPoint" />
          </mxGeometry>
        </mxCell>
        <mxCell id="gc0eFn-Zih1iViQZy-ai-26" value="" style="endArrow=none;dashed=1;html=1;dashPattern=1 3;strokeWidth=2;rounded=0;entryX=0;entryY=0.5;entryDx=0;entryDy=0;exitX=1;exitY=0.5;exitDx=0;exitDy=0;" edge="1" parent="1" source="gc0eFn-Zih1iViQZy-ai-2" target="gc0eFn-Zih1iViQZy-ai-7">
          <mxGeometry width="50" height="50" relative="1" as="geometry">
            <mxPoint x="537" y="119" as="sourcePoint" />
            <mxPoint x="570" y="80" as="targetPoint" />
          </mxGeometry>
        </mxCell>
        <mxCell id="gc0eFn-Zih1iViQZy-ai-27" value="" style="endArrow=none;dashed=1;html=1;dashPattern=1 3;strokeWidth=2;rounded=0;entryX=0;entryY=0.5;entryDx=0;entryDy=0;exitX=1;exitY=1;exitDx=0;exitDy=0;" edge="1" parent="1" source="gc0eFn-Zih1iViQZy-ai-2" target="gc0eFn-Zih1iViQZy-ai-8">
          <mxGeometry width="50" height="50" relative="1" as="geometry">
            <mxPoint x="550" y="140" as="sourcePoint" />
            <mxPoint x="670" y="140" as="targetPoint" />
          </mxGeometry>
        </mxCell>
        <mxCell id="gc0eFn-Zih1iViQZy-ai-29" value="" style="endArrow=none;dashed=1;html=1;dashPattern=1 3;strokeWidth=2;rounded=0;entryX=0;entryY=0.5;entryDx=0;entryDy=0;exitX=1;exitY=0.38;exitDx=0;exitDy=0;exitPerimeter=0;" edge="1" parent="1" source="gc0eFn-Zih1iViQZy-ai-3" target="gc0eFn-Zih1iViQZy-ai-9">
          <mxGeometry width="50" height="50" relative="1" as="geometry">
            <mxPoint x="577" y="149" as="sourcePoint" />
            <mxPoint x="720" y="80" as="targetPoint" />
          </mxGeometry>
        </mxCell>
        <mxCell id="gc0eFn-Zih1iViQZy-ai-30" value="" style="endArrow=none;dashed=1;html=1;dashPattern=1 3;strokeWidth=2;rounded=0;entryX=0;entryY=0.5;entryDx=0;entryDy=0;exitX=1;exitY=0.5;exitDx=0;exitDy=0;" edge="1" parent="1" source="gc0eFn-Zih1iViQZy-ai-4" target="gc0eFn-Zih1iViQZy-ai-9">
          <mxGeometry width="50" height="50" relative="1" as="geometry">
            <mxPoint x="600" y="273" as="sourcePoint" />
            <mxPoint x="720" y="80" as="targetPoint" />
          </mxGeometry>
        </mxCell>
        <mxCell id="gc0eFn-Zih1iViQZy-ai-31" value="" style="endArrow=none;dashed=1;html=1;dashPattern=1 3;strokeWidth=2;rounded=0;exitX=1;exitY=0.5;exitDx=0;exitDy=0;entryX=0;entryY=0.333;entryDx=0;entryDy=0;entryPerimeter=0;" edge="1" parent="1" source="gc0eFn-Zih1iViQZy-ai-5" target="gc0eFn-Zih1iViQZy-ai-9">
          <mxGeometry width="50" height="50" relative="1" as="geometry">
            <mxPoint x="600" y="380" as="sourcePoint" />
            <mxPoint x="710" y="70" as="targetPoint" />
          </mxGeometry>
        </mxCell>
        <mxCell id="gc0eFn-Zih1iViQZy-ai-32" value="" style="endArrow=none;dashed=1;html=1;dashPattern=1 3;strokeWidth=2;rounded=0;entryX=0;entryY=0.333;entryDx=0;entryDy=0;exitX=0.991;exitY=0.38;exitDx=0;exitDy=0;entryPerimeter=0;exitPerimeter=0;" edge="1" parent="1" source="gc0eFn-Zih1iViQZy-ai-3" target="gc0eFn-Zih1iViQZy-ai-7">
          <mxGeometry width="50" height="50" relative="1" as="geometry">
            <mxPoint x="590" y="170" as="sourcePoint" />
            <mxPoint x="760" y="330" as="targetPoint" />
          </mxGeometry>
        </mxCell>
        <mxCell id="gc0eFn-Zih1iViQZy-ai-33" value="" style="endArrow=none;dashed=1;html=1;dashPattern=1 3;strokeWidth=2;rounded=0;exitX=1;exitY=0.5;exitDx=0;exitDy=0;" edge="1" parent="1" source="gc0eFn-Zih1iViQZy-ai-4" target="gc0eFn-Zih1iViQZy-ai-7">
          <mxGeometry width="50" height="50" relative="1" as="geometry">
            <mxPoint x="599" y="273" as="sourcePoint" />
            <mxPoint x="760" y="320" as="targetPoint" />
          </mxGeometry>
        </mxCell>
        <mxCell id="gc0eFn-Zih1iViQZy-ai-34" value="" style="endArrow=none;dashed=1;html=1;dashPattern=1 3;strokeWidth=2;rounded=0;exitX=1;exitY=0.5;exitDx=0;exitDy=0;entryX=0;entryY=0.5;entryDx=0;entryDy=0;" edge="1" parent="1" source="gc0eFn-Zih1iViQZy-ai-5" target="gc0eFn-Zih1iViQZy-ai-7">
          <mxGeometry width="50" height="50" relative="1" as="geometry">
            <mxPoint x="600" y="380" as="sourcePoint" />
            <mxPoint x="763" y="340" as="targetPoint" />
          </mxGeometry>
        </mxCell>
        <mxCell id="gc0eFn-Zih1iViQZy-ai-35" value="" style="endArrow=none;dashed=1;html=1;dashPattern=1 3;strokeWidth=2;rounded=0;entryX=0;entryY=0;entryDx=0;entryDy=0;exitX=1;exitY=0.5;exitDx=0;exitDy=0;" edge="1" parent="1" source="gc0eFn-Zih1iViQZy-ai-3" target="gc0eFn-Zih1iViQZy-ai-8">
          <mxGeometry width="50" height="50" relative="1" as="geometry">
            <mxPoint x="577" y="191" as="sourcePoint" />
            <mxPoint x="740" y="480" as="targetPoint" />
          </mxGeometry>
        </mxCell>
        <mxCell id="gc0eFn-Zih1iViQZy-ai-36" value="" style="endArrow=none;dashed=1;html=1;dashPattern=1 3;strokeWidth=2;rounded=0;entryX=0.044;entryY=0.34;entryDx=0;entryDy=0;exitX=1;exitY=0.333;exitDx=0;exitDy=0;entryPerimeter=0;exitPerimeter=0;" edge="1" parent="1" source="gc0eFn-Zih1iViQZy-ai-4" target="gc0eFn-Zih1iViQZy-ai-8">
          <mxGeometry width="50" height="50" relative="1" as="geometry">
            <mxPoint x="600" y="280" as="sourcePoint" />
            <mxPoint x="753" y="459" as="targetPoint" />
          </mxGeometry>
        </mxCell>
        <mxCell id="gc0eFn-Zih1iViQZy-ai-37" value="" style="endArrow=none;dashed=1;html=1;dashPattern=1 3;strokeWidth=2;rounded=0;entryX=0.018;entryY=0.353;entryDx=0;entryDy=0;entryPerimeter=0;" edge="1" parent="1" source="gc0eFn-Zih1iViQZy-ai-5" target="gc0eFn-Zih1iViQZy-ai-8">
          <mxGeometry width="50" height="50" relative="1" as="geometry">
            <mxPoint x="600" y="370" as="sourcePoint" />
            <mxPoint x="744" y="470" as="targetPoint" />
          </mxGeometry>
        </mxCell>
      </root>
    </mxGraphModel>
  </diagram>
  <diagram id="8LlJkCRYlkYfvb6ADmaD" name="Page-6">
    <mxGraphModel dx="1050" dy="566" grid="1" gridSize="10" guides="1" tooltips="1" connect="1" arrows="1" fold="1" page="1" pageScale="1" pageWidth="850" pageHeight="1100" math="0" shadow="0">
      <root>
        <mxCell id="0" />
        <mxCell id="1" parent="0" />
        <mxCell id="-5zxEqa0QEJGzoNch9PG-1" value="Libarian" style="shape=umlActor;verticalLabelPosition=bottom;verticalAlign=top;html=1;outlineConnect=0;" parent="1" vertex="1">
          <mxGeometry x="210" y="400" width="30" height="60" as="geometry" />
        </mxCell>
        <mxCell id="-5zxEqa0QEJGzoNch9PG-2" value="User" style="shape=umlActor;verticalLabelPosition=bottom;verticalAlign=top;html=1;outlineConnect=0;" parent="1" vertex="1">
          <mxGeometry x="210" y="600" width="30" height="60" as="geometry" />
        </mxCell>
        <mxCell id="-5zxEqa0QEJGzoNch9PG-6" value="Quản lý tất cả tài khoản" style="ellipse;whiteSpace=wrap;html=1;" parent="1" vertex="1">
          <mxGeometry x="340" y="400" width="110" height="70" as="geometry" />
        </mxCell>
        <mxCell id="-5zxEqa0QEJGzoNch9PG-7" value="Quản lý tài khoản cá nhân" style="ellipse;whiteSpace=wrap;html=1;" parent="1" vertex="1">
          <mxGeometry x="340" y="600" width="95" height="60" as="geometry" />
        </mxCell>
        <mxCell id="-5zxEqa0QEJGzoNch9PG-8" value="Thêm tài khoản mới" style="ellipse;whiteSpace=wrap;html=1;" parent="1" vertex="1">
          <mxGeometry x="540" y="350" width="110" height="70" as="geometry" />
        </mxCell>
        <mxCell id="-5zxEqa0QEJGzoNch9PG-9" value="Xóa tài khoản" style="ellipse;whiteSpace=wrap;html=1;" parent="1" vertex="1">
          <mxGeometry x="540" y="470" width="110" height="70" as="geometry" />
        </mxCell>
        <mxCell id="-5zxEqa0QEJGzoNch9PG-10" value="Sửa thông tin tài khoản" style="ellipse;whiteSpace=wrap;html=1;" parent="1" vertex="1">
          <mxGeometry x="540" y="570" width="110" height="70" as="geometry" />
        </mxCell>
        <mxCell id="-5zxEqa0QEJGzoNch9PG-11" value="" style="endArrow=classic;html=1;rounded=0;exitX=0.5;exitY=0.5;exitDx=0;exitDy=0;exitPerimeter=0;entryX=0;entryY=0.5;entryDx=0;entryDy=0;" parent="1" source="-5zxEqa0QEJGzoNch9PG-1" target="-5zxEqa0QEJGzoNch9PG-6" edge="1">
          <mxGeometry width="50" height="50" relative="1" as="geometry">
            <mxPoint x="400" y="620" as="sourcePoint" />
            <mxPoint x="450" y="570" as="targetPoint" />
          </mxGeometry>
        </mxCell>
        <mxCell id="-5zxEqa0QEJGzoNch9PG-12" value="" style="endArrow=classic;html=1;rounded=0;exitX=0.5;exitY=0.5;exitDx=0;exitDy=0;exitPerimeter=0;entryX=0;entryY=0.5;entryDx=0;entryDy=0;" parent="1" source="-5zxEqa0QEJGzoNch9PG-2" target="-5zxEqa0QEJGzoNch9PG-7" edge="1">
          <mxGeometry width="50" height="50" relative="1" as="geometry">
            <mxPoint x="235" y="440" as="sourcePoint" />
            <mxPoint x="350" y="445" as="targetPoint" />
          </mxGeometry>
        </mxCell>
        <mxCell id="-5zxEqa0QEJGzoNch9PG-13" value="" style="endArrow=none;dashed=1;html=1;dashPattern=1 3;strokeWidth=2;rounded=0;entryX=0;entryY=0.5;entryDx=0;entryDy=0;exitX=1;exitY=0.5;exitDx=0;exitDy=0;" parent="1" source="-5zxEqa0QEJGzoNch9PG-6" target="-5zxEqa0QEJGzoNch9PG-8" edge="1">
          <mxGeometry width="50" height="50" relative="1" as="geometry">
            <mxPoint x="400" y="620" as="sourcePoint" />
            <mxPoint x="450" y="570" as="targetPoint" />
          </mxGeometry>
        </mxCell>
        <mxCell id="-5zxEqa0QEJGzoNch9PG-14" value="" style="endArrow=none;dashed=1;html=1;dashPattern=1 3;strokeWidth=2;rounded=0;entryX=0;entryY=0.5;entryDx=0;entryDy=0;exitX=1;exitY=0.5;exitDx=0;exitDy=0;" parent="1" source="-5zxEqa0QEJGzoNch9PG-6" target="-5zxEqa0QEJGzoNch9PG-9" edge="1">
          <mxGeometry width="50" height="50" relative="1" as="geometry">
            <mxPoint x="460" y="445" as="sourcePoint" />
            <mxPoint x="550" y="395" as="targetPoint" />
          </mxGeometry>
        </mxCell>
        <mxCell id="-5zxEqa0QEJGzoNch9PG-15" value="" style="endArrow=none;dashed=1;html=1;dashPattern=1 3;strokeWidth=2;rounded=0;entryX=0;entryY=0.5;entryDx=0;entryDy=0;exitX=0.993;exitY=0.634;exitDx=0;exitDy=0;exitPerimeter=0;" parent="1" source="-5zxEqa0QEJGzoNch9PG-6" target="-5zxEqa0QEJGzoNch9PG-10" edge="1">
          <mxGeometry width="50" height="50" relative="1" as="geometry">
            <mxPoint x="460" y="445" as="sourcePoint" />
            <mxPoint x="550" y="515" as="targetPoint" />
          </mxGeometry>
        </mxCell>
        <mxCell id="-5zxEqa0QEJGzoNch9PG-16" value="" style="endArrow=none;dashed=1;html=1;dashPattern=1 3;strokeWidth=2;rounded=0;exitX=1;exitY=0.5;exitDx=0;exitDy=0;" parent="1" source="-5zxEqa0QEJGzoNch9PG-7" edge="1">
          <mxGeometry width="50" height="50" relative="1" as="geometry">
            <mxPoint x="460" y="445" as="sourcePoint" />
            <mxPoint x="540" y="500" as="targetPoint" />
          </mxGeometry>
        </mxCell>
        <mxCell id="-5zxEqa0QEJGzoNch9PG-17" value="" style="endArrow=none;dashed=1;html=1;dashPattern=1 3;strokeWidth=2;rounded=0;entryX=0;entryY=0.5;entryDx=0;entryDy=0;" parent="1" source="-5zxEqa0QEJGzoNch9PG-7" target="-5zxEqa0QEJGzoNch9PG-10" edge="1">
          <mxGeometry width="50" height="50" relative="1" as="geometry">
            <mxPoint x="459" y="454" as="sourcePoint" />
            <mxPoint x="550" y="615" as="targetPoint" />
          </mxGeometry>
        </mxCell>
      </root>
    </mxGraphModel>
  </diagram>
  <diagram id="57qnHs34DqIXZ_HUOxKE" name="Page-7">
    <mxGraphModel dx="1050" dy="566" grid="1" gridSize="10" guides="1" tooltips="1" connect="1" arrows="1" fold="1" page="1" pageScale="1" pageWidth="850" pageHeight="1100" math="0" shadow="0">
      <root>
        <mxCell id="0" />
        <mxCell id="1" parent="0" />
        <mxCell id="MGoJmRvMgfGSRHQ3VZ9A-1" value="Libarian" style="shape=umlActor;verticalLabelPosition=bottom;verticalAlign=top;html=1;outlineConnect=0;" vertex="1" parent="1">
          <mxGeometry x="130" y="260" width="30" height="60" as="geometry" />
        </mxCell>
        <mxCell id="MGoJmRvMgfGSRHQ3VZ9A-2" value="User" style="shape=umlActor;verticalLabelPosition=bottom;verticalAlign=top;html=1;outlineConnect=0;" vertex="1" parent="1">
          <mxGeometry x="130" y="380" width="30" height="60" as="geometry" />
        </mxCell>
        <mxCell id="ubNiR9I9r__NV_lQLdc--1" value="Quản lý lịch sử mượn sách chung" style="ellipse;whiteSpace=wrap;html=1;" vertex="1" parent="1">
          <mxGeometry x="280" y="250" width="110" height="70" as="geometry" />
        </mxCell>
        <mxCell id="ubNiR9I9r__NV_lQLdc--2" value="Sửa thông tin lịch sử mượn sách" style="ellipse;whiteSpace=wrap;html=1;" vertex="1" parent="1">
          <mxGeometry x="510" y="255" width="110" height="60" as="geometry" />
        </mxCell>
        <mxCell id="ubNiR9I9r__NV_lQLdc--3" value="Xem lịch sử mượn sách cá nhân" style="ellipse;whiteSpace=wrap;html=1;" vertex="1" parent="1">
          <mxGeometry x="280" y="375" width="110" height="70" as="geometry" />
        </mxCell>
        <mxCell id="ubNiR9I9r__NV_lQLdc--5" value="" style="endArrow=classic;html=1;rounded=0;entryX=0;entryY=0.5;entryDx=0;entryDy=0;" edge="1" parent="1" source="MGoJmRvMgfGSRHQ3VZ9A-1" target="ubNiR9I9r__NV_lQLdc--1">
          <mxGeometry width="50" height="50" relative="1" as="geometry">
            <mxPoint x="400" y="320" as="sourcePoint" />
            <mxPoint x="450" y="270" as="targetPoint" />
          </mxGeometry>
        </mxCell>
        <mxCell id="ubNiR9I9r__NV_lQLdc--6" value="" style="endArrow=classic;html=1;rounded=0;entryX=0;entryY=0.5;entryDx=0;entryDy=0;" edge="1" parent="1">
          <mxGeometry width="50" height="50" relative="1" as="geometry">
            <mxPoint x="160" y="412" as="sourcePoint" />
            <mxPoint x="280" y="408" as="targetPoint" />
          </mxGeometry>
        </mxCell>
        <mxCell id="ubNiR9I9r__NV_lQLdc--7" value="" style="endArrow=none;dashed=1;html=1;rounded=0;entryX=0;entryY=0.5;entryDx=0;entryDy=0;exitX=1;exitY=0.5;exitDx=0;exitDy=0;" edge="1" parent="1" source="ubNiR9I9r__NV_lQLdc--1" target="ubNiR9I9r__NV_lQLdc--2">
          <mxGeometry width="50" height="50" relative="1" as="geometry">
            <mxPoint x="400" y="320" as="sourcePoint" />
            <mxPoint x="450" y="270" as="targetPoint" />
          </mxGeometry>
        </mxCell>
        <mxCell id="ubNiR9I9r__NV_lQLdc--9" value="Include" style="edgeLabel;html=1;align=center;verticalAlign=middle;resizable=0;points=[];" vertex="1" connectable="0" parent="ubNiR9I9r__NV_lQLdc--7">
          <mxGeometry x="0.03" y="-2" relative="1" as="geometry">
            <mxPoint as="offset" />
          </mxGeometry>
        </mxCell>
      </root>
    </mxGraphModel>
  </diagram>
  <diagram id="3eX5dFsfU0iJ9J6pLvMC" name="Page-8">
    <mxGraphModel dx="1050" dy="566" grid="1" gridSize="10" guides="1" tooltips="1" connect="1" arrows="1" fold="1" page="1" pageScale="1" pageWidth="850" pageHeight="1100" math="0" shadow="0">
      <root>
        <mxCell id="0" />
        <mxCell id="1" parent="0" />
        <mxCell id="Xcr_zyZpafcdZuVy0GBW-2" value="User" style="shape=umlActor;verticalLabelPosition=bottom;verticalAlign=top;html=1;outlineConnect=0;" vertex="1" parent="1">
          <mxGeometry x="150" y="210" width="30" height="60" as="geometry" />
        </mxCell>
        <mxCell id="1cIluGRVgE1gReeQ80E4-1" value="Bình luận" style="ellipse;whiteSpace=wrap;html=1;" vertex="1" parent="1">
          <mxGeometry x="270" y="210" width="100" height="60" as="geometry" />
        </mxCell>
        <mxCell id="1cIluGRVgE1gReeQ80E4-3" value="Xóa bình luận" style="ellipse;whiteSpace=wrap;html=1;" vertex="1" parent="1">
          <mxGeometry x="490" y="190" width="100" height="60" as="geometry" />
        </mxCell>
        <mxCell id="1cIluGRVgE1gReeQ80E4-4" value="Sửa bình luận" style="ellipse;whiteSpace=wrap;html=1;" vertex="1" parent="1">
          <mxGeometry x="450" y="300" width="100" height="60" as="geometry" />
        </mxCell>
        <mxCell id="SiQPfwAnFu2HlSWeiszg-1" value="" style="endArrow=classic;html=1;rounded=0;exitX=0.5;exitY=0.5;exitDx=0;exitDy=0;exitPerimeter=0;entryX=0;entryY=0.5;entryDx=0;entryDy=0;" edge="1" parent="1" source="Xcr_zyZpafcdZuVy0GBW-2" target="1cIluGRVgE1gReeQ80E4-1">
          <mxGeometry width="50" height="50" relative="1" as="geometry">
            <mxPoint x="400" y="320" as="sourcePoint" />
            <mxPoint x="450" y="270" as="targetPoint" />
          </mxGeometry>
        </mxCell>
        <mxCell id="SiQPfwAnFu2HlSWeiszg-3" value="" style="endArrow=none;dashed=1;html=1;rounded=0;entryX=0;entryY=0.5;entryDx=0;entryDy=0;exitX=1;exitY=0;exitDx=0;exitDy=0;" edge="1" parent="1" source="1cIluGRVgE1gReeQ80E4-1" target="1cIluGRVgE1gReeQ80E4-3">
          <mxGeometry width="50" height="50" relative="1" as="geometry">
            <mxPoint x="400" y="320" as="sourcePoint" />
            <mxPoint x="450" y="270" as="targetPoint" />
          </mxGeometry>
        </mxCell>
        <mxCell id="SiQPfwAnFu2HlSWeiszg-4" value="Include" style="edgeLabel;html=1;align=center;verticalAlign=middle;resizable=0;points=[];" vertex="1" connectable="0" parent="SiQPfwAnFu2HlSWeiszg-3">
          <mxGeometry x="-0.2448" y="1" relative="1" as="geometry">
            <mxPoint as="offset" />
          </mxGeometry>
        </mxCell>
        <mxCell id="SiQPfwAnFu2HlSWeiszg-5" value="" style="endArrow=none;dashed=1;html=1;rounded=0;" edge="1" parent="1" source="1cIluGRVgE1gReeQ80E4-1" target="1cIluGRVgE1gReeQ80E4-4">
          <mxGeometry width="50" height="50" relative="1" as="geometry">
            <mxPoint x="400" y="320" as="sourcePoint" />
            <mxPoint x="450" y="270" as="targetPoint" />
          </mxGeometry>
        </mxCell>
        <mxCell id="SiQPfwAnFu2HlSWeiszg-6" value="Include" style="edgeLabel;html=1;align=center;verticalAlign=middle;resizable=0;points=[];" vertex="1" connectable="0" parent="SiQPfwAnFu2HlSWeiszg-5">
          <mxGeometry x="-0.1438" relative="1" as="geometry">
            <mxPoint as="offset" />
          </mxGeometry>
        </mxCell>
        <mxCell id="SiQPfwAnFu2HlSWeiszg-7" value="Thêm bình luận" style="ellipse;whiteSpace=wrap;html=1;" vertex="1" parent="1">
          <mxGeometry x="440" y="90" width="100" height="60" as="geometry" />
        </mxCell>
        <mxCell id="SiQPfwAnFu2HlSWeiszg-8" value="" style="endArrow=none;dashed=1;html=1;rounded=0;entryX=0;entryY=0.5;entryDx=0;entryDy=0;exitX=0.5;exitY=0;exitDx=0;exitDy=0;" edge="1" parent="1" source="1cIluGRVgE1gReeQ80E4-1" target="SiQPfwAnFu2HlSWeiszg-7">
          <mxGeometry width="50" height="50" relative="1" as="geometry">
            <mxPoint x="400" y="320" as="sourcePoint" />
            <mxPoint x="450" y="270" as="targetPoint" />
          </mxGeometry>
        </mxCell>
        <mxCell id="SiQPfwAnFu2HlSWeiszg-9" value="Include" style="edgeLabel;html=1;align=center;verticalAlign=middle;resizable=0;points=[];" vertex="1" connectable="0" parent="SiQPfwAnFu2HlSWeiszg-8">
          <mxGeometry x="0.2395" y="-1" relative="1" as="geometry">
            <mxPoint as="offset" />
          </mxGeometry>
        </mxCell>
      </root>
    </mxGraphModel>
  </diagram>
  <diagram id="3ObtjXPwR0kOoJ9tKvNu" name="Page-9">
    <mxGraphModel dx="1050" dy="566" grid="1" gridSize="10" guides="1" tooltips="1" connect="1" arrows="1" fold="1" page="1" pageScale="1" pageWidth="850" pageHeight="1100" math="0" shadow="0">
      <root>
        <mxCell id="0" />
        <mxCell id="1" parent="0" />
      </root>
    </mxGraphModel>
  </diagram>
  <diagram id="Vzbb7a-QoNZnv0v4841x" name="Page-10">
    <mxGraphModel dx="1050" dy="566" grid="1" gridSize="10" guides="1" tooltips="1" connect="1" arrows="1" fold="1" page="1" pageScale="1" pageWidth="850" pageHeight="1100" math="0" shadow="0">
      <root>
        <mxCell id="0" />
        <mxCell id="1" parent="0" />
        <mxCell id="LjHwd6cyy6KiABkVffeS-1" value="Libarian" style="shape=umlActor;verticalLabelPosition=bottom;verticalAlign=top;html=1;outlineConnect=0;" vertex="1" parent="1">
          <mxGeometry x="190" y="160" width="30" height="60" as="geometry" />
        </mxCell>
        <mxCell id="LjHwd6cyy6KiABkVffeS-2" value="User" style="shape=umlActor;verticalLabelPosition=bottom;verticalAlign=top;html=1;outlineConnect=0;" vertex="1" parent="1">
          <mxGeometry x="190" y="280" width="30" height="60" as="geometry" />
        </mxCell>
        <mxCell id="LjHwd6cyy6KiABkVffeS-3" value="Đăng nhập" style="ellipse;whiteSpace=wrap;html=1;" vertex="1" parent="1">
          <mxGeometry x="330" y="160" width="120" height="70" as="geometry" />
        </mxCell>
        <mxCell id="LjHwd6cyy6KiABkVffeS-4" value="Đăng nhập bằng google" style="ellipse;whiteSpace=wrap;html=1;" vertex="1" parent="1">
          <mxGeometry x="530" y="90" width="120" height="70" as="geometry" />
        </mxCell>
        <mxCell id="LjHwd6cyy6KiABkVffeS-5" value="Đăng nhập bằng Facebook" style="ellipse;whiteSpace=wrap;html=1;" vertex="1" parent="1">
          <mxGeometry x="530" y="210" width="120" height="70" as="geometry" />
        </mxCell>
        <mxCell id="LjHwd6cyy6KiABkVffeS-6" value="Đăng ký" style="ellipse;whiteSpace=wrap;html=1;" vertex="1" parent="1">
          <mxGeometry x="330" y="290" width="120" height="70" as="geometry" />
        </mxCell>
        <mxCell id="LjHwd6cyy6KiABkVffeS-7" value="" style="endArrow=none;dashed=1;html=1;rounded=0;entryX=0;entryY=0.5;entryDx=0;entryDy=0;exitX=1;exitY=0;exitDx=0;exitDy=0;" edge="1" parent="1" source="LjHwd6cyy6KiABkVffeS-3" target="LjHwd6cyy6KiABkVffeS-4">
          <mxGeometry width="50" height="50" relative="1" as="geometry">
            <mxPoint x="400" y="320" as="sourcePoint" />
            <mxPoint x="450" y="270" as="targetPoint" />
          </mxGeometry>
        </mxCell>
        <mxCell id="LjHwd6cyy6KiABkVffeS-9" value="Include" style="edgeLabel;html=1;align=center;verticalAlign=middle;resizable=0;points=[];" vertex="1" connectable="0" parent="LjHwd6cyy6KiABkVffeS-7">
          <mxGeometry x="0.267" y="-1" relative="1" as="geometry">
            <mxPoint as="offset" />
          </mxGeometry>
        </mxCell>
        <mxCell id="LjHwd6cyy6KiABkVffeS-8" value="" style="endArrow=none;dashed=1;html=1;rounded=0;entryX=0;entryY=0.5;entryDx=0;entryDy=0;exitX=1;exitY=1;exitDx=0;exitDy=0;" edge="1" parent="1" source="LjHwd6cyy6KiABkVffeS-3" target="LjHwd6cyy6KiABkVffeS-5">
          <mxGeometry width="50" height="50" relative="1" as="geometry">
            <mxPoint x="442" y="180" as="sourcePoint" />
            <mxPoint x="540" y="135" as="targetPoint" />
          </mxGeometry>
        </mxCell>
        <mxCell id="LjHwd6cyy6KiABkVffeS-10" value="Include" style="edgeLabel;html=1;align=center;verticalAlign=middle;resizable=0;points=[];" vertex="1" connectable="0" parent="LjHwd6cyy6KiABkVffeS-8">
          <mxGeometry x="-0.0592" y="2" relative="1" as="geometry">
            <mxPoint as="offset" />
          </mxGeometry>
        </mxCell>
        <mxCell id="LjHwd6cyy6KiABkVffeS-11" value="" style="endArrow=classic;html=1;rounded=0;entryX=0;entryY=0.5;entryDx=0;entryDy=0;exitX=0.5;exitY=0.5;exitDx=0;exitDy=0;exitPerimeter=0;" edge="1" parent="1" source="LjHwd6cyy6KiABkVffeS-1" target="LjHwd6cyy6KiABkVffeS-3">
          <mxGeometry width="50" height="50" relative="1" as="geometry">
            <mxPoint x="400" y="320" as="sourcePoint" />
            <mxPoint x="450" y="270" as="targetPoint" />
          </mxGeometry>
        </mxCell>
        <mxCell id="LjHwd6cyy6KiABkVffeS-12" value="" style="endArrow=classic;html=1;rounded=0;entryX=0;entryY=0.5;entryDx=0;entryDy=0;exitX=1;exitY=0.3333333333333333;exitDx=0;exitDy=0;exitPerimeter=0;" edge="1" parent="1" source="LjHwd6cyy6KiABkVffeS-2" target="LjHwd6cyy6KiABkVffeS-3">
          <mxGeometry width="50" height="50" relative="1" as="geometry">
            <mxPoint x="215" y="200" as="sourcePoint" />
            <mxPoint x="340" y="205" as="targetPoint" />
          </mxGeometry>
        </mxCell>
        <mxCell id="LjHwd6cyy6KiABkVffeS-13" value="" style="endArrow=classic;html=1;rounded=0;entryX=0;entryY=0.5;entryDx=0;entryDy=0;" edge="1" parent="1" source="LjHwd6cyy6KiABkVffeS-2" target="LjHwd6cyy6KiABkVffeS-6">
          <mxGeometry width="50" height="50" relative="1" as="geometry">
            <mxPoint x="400" y="320" as="sourcePoint" />
            <mxPoint x="450" y="270" as="targetPoint" />
          </mxGeometry>
        </mxCell>
      </root>
    </mxGraphModel>
  </diagram>
</mxfile>
